/* XPM */
static char *_b7dc4e7304043289e3b60409370a0772nBJJVzbwXHR1zK2[] = {
/* columns rows colors chars-per-pixel */
"60 60 19 1 ",
"  c black",
". c #040506",
"X c #07090C",
"o c #070A0D",
"O c #0A0D12",
"+ c #0B0E13",
"@ c #0E1218",
"# c #0E1319",
"$ c #10161C",
"% c #12181F",
"& c #131A22",
"* c #141B23",
"= c #151D26",
"- c #17202A",
"; c #19212C",
": c #1C2632",
"> c #202B38",
", c #23303F",
"< c #273445",
/* pixels */
"    .o  .o     ..    .        ..                 .          ",
"+#     .:   . o    o.o .                                    ",
"#%   . .%         . . o   ..+   . .                         ",
"+ . o+ % .      o.         .    . .                +        ",
"# ..# %o.     .           +.          +   .                 ",
"o #$& . # .#.            .#  .          +.                  ",
".=#>#    .      o.      ++        .     #   ..  .           ",
"+=   . % o.        ..  #       ..     o   +    o            ",
"o+$ % o          +   .o  ;# .       o;o          o          ",
"##$.=.. +  .           o      .              o.  ..         ",
"$o+ +  o        ..    +.. .   o   o      + .  <o            ",
" +o  ..+.         +  +..    . o.         . + .;             ",
".+*  o o         .   +         oo+   ..  .=#                ",
"o#..# o        o+. .o.o    ..o +..o   . .+ .                ",
" >+ +    .         %    .oo   .   .   ..       . .          ",
" &# %     +  .. % .o.    ..  +  #. ...o  .                 .",
" #oo      +  o ,+ o    %..o.    ..o ..   o .   .         o  ",
" #:   . .      >+ o ... +  .o o    .  .++    ...            ",
" .     o  . ..o.+o.     .$.  .      .              .        ",
"  .        o  .   .o    o ..     .                    .o    ",
"  # .     o%   o    o .+  ...     %   .            . oo     ",
"  +o      #    . o   ... # .   .  .                         ",
"   .. o . . o. o.   . . ++                       ...        ",
"  .  . .= .    +    .o..       .       .        .o..  .   . ",
"   .   o.+o       ..  o .    .+       .          o    .     ",
"  o  #    . ..       o..   .  . o              .o.  .       ",
"  o                 .        o  .. o.       oo..        .   ",
"      . .o    .   o+:     .              .  ++              ",
"     +      .     +o.   +..   + o         +o#o  .    .      ",
"  . .      . .  .+o    .  . &      .        .   +          .",
"               .# .  ..   + o     .       ..        . .     ",
"          .   .=    .     #        . o -...   .   ..       .",
"        .    :o    .    ..o       +   .  o. . .   +         ",
"      .     o+  +o .    ..      . +  o o                . o ",
"       .   +    . +    +        +.   o%    o              ..",
"  .       .   ..$.  .+        . .   .+  .                 .o",
"        .      o#+  o.        . . o...                   ++ ",
"    o ..+.  o+###. o #         ...    +        o     .o ....",
"     .    +o  =&+oo+   .       .                     ..   oo",
"            +o+         .  .. o#o    .   .o o#    .  o .o   ",
"           .;          .. .+ooo.#o        o             . + ",
"       .  .o.  .%       .  .  o +         .        .   + oo#",
"       . o.+   . +.    o+  #o . .   .           .     . .o+o",
"        +.. .++  .   .   .  $.   .           .        . . . ",
"  .. . #& ++.. .   . .      +               .  .      ...   ",
"  . . +o   +      ..        ..                      .  o . #",
"   ..+.    .o  .           . .      .              .     .$#",
"  .      o..    .  .   ..         o#o         ..    # o. . +",
" #++.. =#      o.      #         .         . .        . .# o",
"  .. . o      ..   + .o                      .       . oo$+o",
"    .       . o     ...        o            +   .    +  ..$ ",
"  .       ...       +                     .    o    =.##.;o ",
"  .    ..  .o.  $=o.. .     .                 .    + o.%+   ",
" .      o o...   %        .            .   .  o. .. o. ...  ",
"       o%o  o              .               .. . .. .#++=#   ",
"           .              .     .    o         o+ .o*o      ",
"    .     ..      .          o         .  o  #..+ .,#.      ",
"             .      .  .           o     ..      ...        ",
"                                                 #          ",
"                                       .                    "
};
