/* XPM */
static char *c3308d322e774a48ba93c6342355719f40CfUKHSHloskwRA[] = {
/* columns rows colors chars-per-pixel */
"60 60 201 2 ",
"   c None",
".  c #501400",
"X  c #5F2C15",
"o  c #632E14",
"O  c #752E14",
"+  c #61351E",
"@  c #6C351C",
"#  c #65391E",
"$  c #67381F",
"%  c #793117",
"&  c #7A3917",
"*  c #7C351A",
"=  c #6C3921",
"-  c #6D3E27",
";  c #793E24",
":  c #457500",
">  c #487202",
",  c #5B7609",
"<  c #5A7D08",
"1  c #7B4325",
"2  c #79432A",
"3  c #7A482D",
"4  c #7D7725",
"5  c #7C7A23",
"6  c #8E3F1C",
"7  c #B0390A",
"8  c #DA1611",
"9  c #E00F0F",
"0  c #E0100F",
"q  c #E01111",
"w  c #E31313",
"e  c #E51717",
"r  c #E81F1F",
"t  c #CD200E",
"y  c #C43B15",
"u  c #E5211B",
"i  c #F02F22",
"p  c #F52C2C",
"a  c #E43228",
"s  c #F6392D",
"d  c #F73030",
"f  c #FF3B3B",
"g  c #FB3E39",
"h  c #FF3D3B",
"j  c #864118",
"k  c #AE5B15",
"l  c #826606",
"z  c #8B700A",
"x  c #987514",
"c  c #8B4124",
"v  c #8D4224",
"b  c #8C4225",
"n  c #864926",
"m  c #83442A",
"M  c #964022",
"N  c #9C4D25",
"B  c #97492A",
"V  c #914C29",
"C  c #955126",
"Z  c #995425",
"A  c #844F35",
"S  c #9D5634",
"D  c #905339",
"F  c #985A38",
"G  c #A34D27",
"H  c #A24D2D",
"J  c #A65838",
"K  c #B75731",
"L  c #B95733",
"P  c #89722F",
"I  c #906D32",
"U  c #97683F",
"Y  c #AA6D24",
"T  c #AE723A",
"R  c #AF773A",
"E  c #A8753C",
"W  c #D85835",
"Q  c #F45428",
"!  c #FF4E3F",
"~  c #DF7130",
"^  c #FD7D32",
"/  c #FF7D3B",
"(  c #955E42",
")  c #AB714F",
"_  c #EA4641",
"`  c #F64945",
"'  c #F7514F",
"]  c #FF5654",
"[  c #DC7056",
"{  c #EF6D40",
"}  c #F96647",
"|  c #4E8300",
" . c #588601",
".. c #588605",
"X. c #538C00",
"o. c #538D00",
"O. c #588900",
"+. c #5B9501",
"@. c #5B9801",
"#. c #5F9D01",
"$. c #6D8D03",
"%. c #7B9C05",
"&. c #728D1A",
"*. c #67961A",
"=. c #63A601",
"-. c #65AA00",
";. c #67AD00",
":. c #6FA110",
">. c #7CA912",
",. c #858709",
"<. c #8D940B",
"1. c #948B38",
"2. c #B8893E",
"3. c #B4A837",
"4. c #C1AC17",
"5. c #F2A617",
"6. c #FBAC15",
"7. c #FCAD15",
"8. c #FDB619",
"9. c #FEBB1B",
"0. c #FEBC1B",
"q. c #FEBB1C",
"w. c #FFBC1C",
"e. c #C18534",
"r. c #C29B3B",
"t. c #FF8B3E",
"y. c #DBBA26",
"u. c #F9B520",
"i. c #F6BC20",
"p. c #FABF20",
"a. c #F8B827",
"s. c #FFBF29",
"d. c #F0BD3B",
"f. c #F9BF3C",
"g. c #FEC01E",
"h. c #FEC11E",
"j. c #FFC21E",
"k. c #FEC31F",
"l. c #FFC31F",
"z. c #FFC41F",
"x. c #CAC639",
"c. c #FDC220",
"v. c #FEC320",
"b. c #FFC320",
"n. c #FFC420",
"m. c #FFC522",
"M. c #FFC624",
"N. c #FFC626",
"B. c #FFC727",
"V. c #FEC428",
"C. c #FFC729",
"Z. c #FEC62A",
"A. c #FFC829",
"S. c #FFC92A",
"D. c #FFC92B",
"F. c #FFCA2C",
"G. c #FFCA2D",
"H. c #FFCB2E",
"J. c #FFCB2F",
"K. c #FFC932",
"L. c #FFCC31",
"P. c #FFCC32",
"I. c #F8C936",
"U. c #FFCD34",
"Y. c #FFCD35",
"T. c #FFCE36",
"R. c #FFC13A",
"E. c #FAC93A",
"W. c #FFCF38",
"Q. c #FFD03A",
"!. c #FFD23F",
"~. c #BA9243",
"^. c #BF8B56",
"/. c #C6974E",
"(. c #CD9748",
"). c #D6A643",
"_. c #DAA642",
"`. c #D3A849",
"'. c #D5A75A",
"]. c #DEAB5C",
"[. c #FEA240",
"{. c #ECBE4B",
"}. c #FAA958",
"|. c #EABB50",
" X c #C68560",
".X c #FF8E7A",
"XX c #D6C941",
"oX c #FBC644",
"OX c #F5CC43",
"+X c #FCCB4D",
"@X c #FCCB4E",
"#X c #FFD341",
"$X c #FFD443",
"%X c #FED54F",
"&X c #FDD25F",
"*X c #FED55F",
"=X c #EDCF69",
"-X c #FC8D86",
";X c #FFAA9F",
":X c #D8C596",
">X c #ECE5C2",
/* pixels */
"                                                                                                                        ",
"                                                                                                                        ",
"                                                                                                                        ",
"                                                                                                                        ",
"                                                                                                                        ",
"                                                                                                                        ",
"                                                                                                                        ",
"                                                                                                                        ",
"                                                                                                                        ",
"                                                                                                                        ",
"                                                                                                                        ",
"                                                                                                                        ",
"                                                                                                                        ",
"                                                                                                                        ",
"                                                                                                                        ",
"                                                                                                                        ",
"                                                                                                                        ",
"                                                                                                                        ",
"                                                                                                                        ",
"                                                    f   f ~ y.k.w.n.n.D.                                                ",
"                                              .XQ } 9 u t.N.n.q.q.n.n.n.6.F.T.F.                                        ",
"                                          / ] ;Xa ..3.R.n.n.n.n.n.n.D.!.D.L.$XQ.n.N.                                    ",
"                                    ! p r d 9 $.k r.u.n.n.n.n.D.N.n.C.$XL.b.L.N.n.n.n.                                  ",
"                                  @Xs  .Y q e 5 _.s.n.n.n.n.n.n.b.b.k.F.N.n.n.n.n.n.n.n.                                ",
"                                  ^ h x W ' 7 }.n.n.n.n.n.8.n.n.n.n.n.z.z.D.n.b.B.n.n.n.n.                              ",
"                                [.i q y l : :.%XL.n.n.n.n.n.n.n.n.n.D.$XD.k.n.z.n.n.6.n.n.                              ",
"                              @X{ g -X:X< #.x.W.T.n.n.n.N.Q.N.z.n.n.n.D.N.n.n.z.n.n.n.n.n.n.                            ",
"                            *X4.>Xp _ ` q >.I.z.n.n.k.n.z.n.n.z.n.n.n.n.n.n.Q.D.Q.n.n.n.n.n.n.                          ",
"                          &Xa.<.*.8 t z [ =Xk.z.n.b.k.n.z.n.k.n.n.n.n.z.n.n.L.$XQ.n.n.n.N.$XN.                          ",
"                          f.,.@.o.-.O.o.&.E.z.N.!.F.k.n.n.n.n.n.n.n.N.Q.D.n.n.L.D.z.n.n.n.F.L.                          ",
"                          %.+.;.| > P =.XXT.L.n.k.k.n.n.k.k.N.N.n.n.n.W.W.b.n.n.n.n.n.n.z.L.$XD.                        ",
"                        oX5.I 4 , + ) 1.OXL.N.n.F.n.n.b.b.n.!.F.n.n.n.n.n.n.z.z.N.n.n.n.k.D.W.D.                        ",
"                        (.V O b 1 = 3 /.b.n.n.n.n.n.n.n.n.n.T.n.n.n.n.n.C.C.b.n.n.n.n.n.n.n.n.                          ",
"                        % Z C G @ b o ).n.n.0.n.n.n.n.n.n.b.k.n.n.n.n.n.N.n.b.b.n.n.n.                                  ",
"                        j & B L 6 L n d.C.n.n.N.N.k.n.n.n.z.n.n.n.F.$Xn.n.n.                                            ",
"                        E m S * c H ~.b.n.n.L.$X$XD.n.N.n.n.n.n.n.F.T.                                                  ",
"                        T M M X - # {.b.n.n.N.F.$XD.n.n.n.n.k.                                                          ",
"                        e.N F J  XU K.b.N.N.n.D.Q.D.n.n.                                                                ",
"                        2.A 2 . ( '.D.n.n.n.k.!.L.T.                                                                    ",
"                          R D ; + `.N.n.n.b.n.                                                                          ",
"                            ].^.# {.p.i.                                                                                ",
"                                                                                                                        ",
"                                                                                                                        ",
"                                                                                                                        ",
"                                                                                                                        ",
"                                                                                                                        ",
"                                                                                                                        ",
"                                                                                                                        ",
"                                                                                                                        ",
"                                                                                                                        ",
"                                                                                                                        ",
"                                                                                                                        ",
"                                                                                                                        ",
"                                                                                                                        ",
"                                                                                                                        ",
"                                                                                                                        ",
"                                                                                                                        ",
"                                                                                                                        ",
"                                                                                                                        ",
"                                                                                                                        "
};
