/* XPM */
static char *_7bc6a6868df4bd4b0f70002fc1a721a4HqPDh0FsaaGomJM[] = {
/* columns rows colors chars-per-pixel */
"60 60 101 2 ",
"   c None",
".  c #8C5B35",
"X  c #8D5C35",
"o  c #925F39",
"O  c #97633B",
"+  c #92603F",
"@  c #92613F",
"#  c #95623E",
"$  c #95623F",
"%  c #96623F",
"&  c #97633F",
"*  c #99643C",
"=  c #966240",
"-  c #976340",
";  c #9A6541",
":  c #9A6640",
">  c #996542",
",  c #9E6742",
"<  c #986544",
"1  c #996544",
"2  c #9B6645",
"3  c #9A6646",
"4  c #9C6745",
"5  c #9F6840",
"6  c #9F6843",
"7  c #A06942",
"8  c #A06943",
"9  c #A46B44",
"0  c #A56C45",
"q  c #A66D44",
"w  c #A46C46",
"e  c #A86F47",
"r  c #A96F47",
"t  c #AA6F46",
"y  c #A06C4A",
"u  c #A16C4B",
"i  c #A26D4B",
"p  c #A46E4C",
"a  c #A56E4C",
"s  c #A56E4D",
"d  c #A66E4C",
"f  c #AA7147",
"g  c #A5704E",
"h  c #AA714A",
"j  c #AB714A",
"k  c #AC724A",
"l  c #AC724B",
"z  c #AD734B",
"x  c #AF734A",
"c  c #A8704E",
"v  c #AA714E",
"b  c #AB714E",
"n  c #AD724C",
"m  c #AE734C",
"M  c #B2754B",
"N  c #B1744D",
"B  c #B3764C",
"V  c #B3764D",
"C  c #B4764D",
"Z  c #B5784B",
"A  c #B87D4F",
"S  c #A77150",
"D  c #A97150",
"F  c #A97250",
"G  c #A87352",
"H  c #AD7453",
"J  c #B37752",
"K  c #B17754",
"L  c #B07856",
"P  c #B17857",
"I  c #B47955",
"U  c #B57A56",
"Y  c #B97C50",
"T  c #B87B56",
"R  c #B87B57",
"E  c #BA7C56",
"W  c #BB7D57",
"Q  c #B37D5D",
"!  c #B87C59",
"~  c #BC814F",
"^  c #BD805A",
"/  c #BE805C",
"(  c #BF815C",
")  c #BD8463",
"_  c #BE8564",
"`  c #C0815C",
"'  c #C0825C",
"]  c #C2825D",
"[  c #C2825E",
"{  c #C2835F",
"}  c #D5B453",
"|  c #C48561",
" . c #C48762",
".. c #C08664",
"X. c #C08665",
"o. c #C18765",
"O. c #C48664",
"+. c #C78A65",
"@. c #C3BD6D",
"#. c #FFE298",
"$. c #FCF091",
/* pixels */
"                                                                                                                        ",
"                                                                                                                        ",
"                                                                                                                        ",
"                                                                                                                        ",
"                                                                                                                        ",
"                                                                                                                        ",
"                                                                                                                        ",
"                                . 5 5 5 5 5 5 5 5 5 5 5 5 5 5 5 5 5 8 5 5 8 * 8 8 5 8 o                                 ",
"                                X M M M M M M M M M M M M M M M M M M M M M M M M M M *                                 ",
"                                X M w & & & & & & & & & & & & & & & & & & & & & & 8 M *                                 ",
"                                X M w t M M M M M M M M M M M M M M M M M M M M M , M *                                 ",
"                                X M w f M M M M M M M M M M M M M M M M M M M M M > M *                                 ",
"                                X M w f M N h w w w w w N M M M D r d w w a M M M , M O                                 ",
"                                X M w t M C E G Q Q Q p ` M M M W G Q Q Q u ` M M & M O                                 ",
"                                X M w t M C I I x h m c ` M M M ` K x j x D | M C , M &                                 ",
"                                X M w t C C I c M M x c ` M M M W c M M C D ` M M * M *                                 ",
"                                X M w t M C I D C M x p ` M M M ) b M M M D ` M M ; M &                                 ",
"                                X M w t M C I m M M M c ` C M M W m M M M D | M M > M *                                 ",
"                                X M w t N C I D M M M c ` M M M ( c M M M D ` M M & M *                                 ",
"                                X M w t C C I m M M x p ` M M M ` c M M M D | M M , M *                                 ",
"                                X M w t M C U D M M M c ` M M M ` D C M N D { M M , M *                                 ",
"                                X M w t M C I m M M x p ` M M M W D N M N m { M M > M &                                 ",
"                                X M w t M C I 4 = & & 2 ` M M M W 2 & & & 2 [ M M , M O                                 ",
"                                X M q t M N O._ ) ) ) ..` M M M  .) ) ) ) _ { M M & M O                                 ",
"                                X M w t M M M M M M M M M M M M M M M M M M M M M > M *                                 ",
"                                X M w t M M M N M M M N M M M M N N M M M M M M M , M *                                 ",
"                                X M w t M Z J = = = = > E M M M ! > = & & = E M M > M *                                 ",
"                                X M w f N C I P _ ....D ` M M M W K ......D ..M N * M *                                 ",
"                                X M w t N C I D M M x c ` M M M ` c C M M D ` M M > M O                                 ",
"                                X M w t Z C I m M M x c ` M M M ` D M M M D | M M , M O                                 ",
"                                . M w f #.~ I m M M x c ` M M M W D M M M D | M M > M *                                 ",
"                                X M q t $.Y I c M M M c ` M M M ` c M M M D ` M M , M *                                 ",
"                                X M w f @.A U D C M M c ` M M M ^ m N N M D { M M , M *                                 ",
"                                X M w t } C I b M M x c ` M M M ` c M M M D { M M > M *                                 ",
"                                X M w r M C I m M M x c ` M M M ` c M M M c { M M * N *                                 ",
"                                . M w t M C T p 8 , , a ` M M M ( p 5 8 8 g { M M > M *                                 ",
"                                X M w t M C ! @ o = + 2 W N M M ( i y y y g ` N M > M *                                 ",
"                                X M q t M N  .+.+.+.+.+.^ C M M  .+.+.+.+.+.` M M , M *                                 ",
"                                X M w f M M N M M M M M N M M M N M M M M M M M M > M *                                 ",
"                                . M w f M M x w y w w w N M M M m w w w w w N M N * M *                                 ",
"                                X M w t M C ! D Q Q Q p ` M M M ( G Q Q Q y [ M M , M *                                 ",
"                                . M w t M C I I h x m c ` M M M ( H x x m H { M M > M *                                 ",
"                                . M w r M C I D M M x p ` M M M W D M M M D { M M * N *                                 ",
"                                . M w t M C I m M M M c ` M M M ` D M M M D { M M > M *                                 ",
"                                . M t t M C U m M M x c ` M M M ( c N M M D { M M > M *                                 ",
"                                . M w t M C U D M M x c ` M M M ( D M M M D { M M , M *                                 ",
"                                . C w r M C I m M M x c ` M M M ( c M M M D { M M > M *                                 ",
"                                . M w r M C I c M M x c ` M M M W m M M M D { M N * M *                                 ",
"                                X M w t M C I m M M x p ` N M M ` D N N C D ` N M > M *                                 ",
"                                X M w t M C U 4 & & & 2 ` M M M ( 2 = o & 2 { N N > M *                                 ",
"                                X M w t M C O._ ) ) ) ..` M M M  ._ _ ) ) .. .M M * M *                                 ",
"                                X M w t M M M N M M M M M M M M M M M M M M M M M , M *                                 ",
"                                X M w t M M M M M M M M M M M M M M M M M M M M M > M O                                 ",
"                                  q 8 8 w 9 9 9 9 w 9 9 9 9 9 w 9 9 9 w 9 9 9 9 q > q O                                 ",
"                                                                                                                        ",
"                                                                                                                        ",
"                                                                                                                        ",
"                                                                                                                        ",
"                                                                                                                        ",
"                                                                                                                        "
};
