/* XPM */
static char *f0284597763e48cfcf5958cd9f4351a1H2QlmmWEZLwtUMEc[] = {
/* columns rows colors chars-per-pixel */
"60 60 142 2 ",
"   c None",
".  c #532F17",
"X  c #542F18",
"o  c #56321B",
"O  c #59351D",
"+  c #553721",
"@  c #573923",
"#  c #5A3A25",
"$  c #5F3E29",
"%  c #623F29",
"&  c #6F4326",
"*  c #66422C",
"=  c #6B452F",
"-  c #714427",
";  c #744628",
":  c #71492E",
">  c #6D4630",
",  c #6F4933",
"<  c #6F4F3D",
"1  c #704933",
"2  c #7F4F33",
"3  c #7E5237",
"4  c #75533A",
"5  c #7C553C",
"6  c #7A583F",
"7  c #705140",
"8  c #795540",
"9  c #745945",
"0  c #7C5942",
"q  c #715A4C",
"w  c #735F54",
"e  c #815236",
"r  c #86553A",
"t  c #935D3E",
"y  c #9B673D",
"u  c #9D6A3D",
"i  c #815C47",
"p  c #955E42",
"a  c #8E6040",
"s  c #966143",
"d  c #9A6344",
"f  c #9E6E44",
"g  c #906650",
"h  c #A06E41",
"j  c #A27245",
"k  c #A67649",
"l  c #A7794C",
"z  c #A97B4E",
"x  c #AB7E50",
"c  c #8B7464",
"v  c #8C766B",
"b  c #8F796A",
"n  c #927C6D",
"m  c #947E70",
"M  c #A17863",
"N  c #AD8255",
"B  c #B0865B",
"V  c #B2885E",
"C  c #9E866D",
"Z  c #968173",
"A  c #998476",
"S  c #9A8678",
"D  c #9E8A7D",
"F  c #AD806A",
"G  c #B48C63",
"H  c #B7916A",
"J  c #B9946E",
"K  c #BB9773",
"L  c #BE9B77",
"P  c #C19F7C",
"I  c #A18E81",
"U  c #A39184",
"Y  c #A79589",
"T  c #A9978C",
"R  c #AB9A8E",
"E  c #AE9D92",
"W  c #AFA296",
"Q  c #B0A296",
"!  c #B4A69B",
"~  c #B7A89F",
"^  c #BBADA4",
"/  c #BEB0A7",
"(  c #BFB2A9",
")  c #C3A482",
"_  c #C4A98B",
"`  c #CAAD8E",
"'  c #CDB395",
"]  c #D1B89C",
"[  c #C0B0A6",
"{  c #C2B5AB",
"}  c #D6C0A6",
"|  c #D7C1A9",
" . c #D5C0AA",
".. c #D7C1AA",
"X. c #D7C2AB",
"o. c #D7C1AB",
"O. c #D8C3AA",
"+. c #D9C4AE",
"@. c #DAC7B2",
"#. c #DAC6B2",
"$. c #DBC8B5",
"%. c #DDCCBA",
"&. c #DDD5CF",
"*. c #DFDAD8",
"=. c #E2D2C3",
"-. c #E5D7CA",
";. c #E0D9D4",
":. c #E8DBD0",
">. c #E4DEDA",
",. c #EBE0D6",
"<. c #E7E3DF",
"1. c #EEE5DC",
"2. c #E9E5E2",
"3. c #ECE9E6",
"4. c #EEECEA",
"5. c #F1EAE3",
"6. c #F5EFEA",
"7. c #F5F4F3",
"8. c #F9F6F3",
"9. c #FAF8F5",
"0. c #FAF8F6",
"q. c #FBF8F6",
"w. c #FAF9F7",
"e. c #FAF9F8",
"r. c #FBF9F8",
"t. c #FBF9F9",
"y. c #FBFBFA",
"u. c #FCFAFA",
"i. c #FCFBFB",
"p. c #FCFCFB",
"a. c #FDFCFB",
"s. c gray99",
"d. c #FDFCFC",
"f. c #FDFDFC",
"g. c #FDFDFD",
"h. c #FEFDFD",
"j. c #FEFEFD",
"k. c #FDFDFE",
"l. c #FEFEFE",
"z. c #FEFEFF",
"x. c white",
"c. c #FFFFFF",
/* pixels */
"                                                                                                                        ",
"                                                                                                                        ",
"                                                                                                                        ",
"                        s s d d d f d d f d d d d d f g d d d j j d d d d d d d d       % # r d                         ",
"                        s t : & > - - & - - - - - - - ; 2 % ; ; ; ; ; ; ; 3 r r 5 % $ $ # # r d                         ",
"                        s f C ! Q Q Q Q W Q Q W Q Q Q E ! Q Q ! Q W Q Q Q 9 @ # # $ # # % @ r p                         ",
"                        s u #.x.x.x.x.x.x.x.x.x.x.x.x.x.x.x.i.x.x.x.x.x.x.c O $ $ $ $ % % # r h                         ",
"                        s u X.x.t.i.t.i.i.i.i.i.i.i.i.i.i.i.i.i.a.y.t.y.a.c O = % > > > % # r p                         ",
"                        s u O.x.a.x.x.x.x.x.x.x.x.x.x.x.x.x.x.x.x.x.x.x.x.c O 1 2 % % 7 % # r d                         ",
"                        s y X.x.a.x.x.x.x.x.x.x.x.x.x.x.x.x.x.x.x.x.x.i.x.c O > % e % % % O r d                         ",
"                        s y X.x.a.x.x.x.x.x.x.x.x.x.x.x.x.x.x.x.x.x.i.x.x.v O 1 % 8 % 2 % % r d                         ",
"                        p y X.x.i.x.x.x.x.x.x.x.x.x.x.x.x.x.x.x.x.x.x.x.x.b O 1 % % 1 % % % r d                         ",
"                        s y X.x.a.x.x.x.x.x.x.x.x.x.x.x.x.x.x.x.x.x.i.x.t.m O 1 2 % 1 1 % % a d                         ",
"                        p y } x.a.x.x.x.x.x.x.x.x.x.x.x.x.x.x.x.x.x.x.i.t.m O 2 % 2 % 1 % # r p                         ",
"                        p y ] x.t.x.x.x.x.x.x.x.x.x.x.x.x.x.x.x.x.x.i.u.u.m O % 1 1 1 % % % r d                         ",
"                        p y ' x.x.x.x.x.x.x.x.x.x.x.x.x.x.x.x.x.x.x.i.u.u.m O < % % 1 2 % # r p                         ",
"                        p y ` x.x.x.x.x.x.x.x.x.x.x.x.x.x.x.x.x.x.x.x.s.x.Z o 1 = = = > = # r h                         ",
"                        p y _ x.x.a.x.x.x.x.x.x.x.x.x.x.x.x.x.x.x.x.x.t.x.A O , = > = > % # r p                         ",
"                        p d ) x.x.s.x.x.x.x.x.x.x.x.x.x.x.x.x.x.x.x.x.x.x.A o , = = > > % # r d                         ",
"                        s y P x.x.x.x.x.x.x.x.x.x.x.x.x.x.x.x.x.x.x.s.t.x.D o , > = = > = # r d                         ",
"                        p d L s.x.x.x.x.x.x.x.x.x.x.x.x.x.x.x.x.x.x.x.x.x.D o , > = : > = @ r d                         ",
"                        s y K y.x.s.x.x.x.x.x.x.x.x.x.x.x.x.x.x.x.x.x.t.x.D o , > = = > % @ r p                         ",
"                        p d J x.x.x.x.x.x.x.x.x.x.x.x.x.x.x.x.x.x.x.x.y.x.I X 1 > > = > = @ r d                         ",
"                        t d H y.x.x.x.x.x.x.x.x.x.x.x.x.x.x.x.x.x.x.x.a.x.U o , > = = > = @ r p                         ",
"                        p d G y.x.x.x.x.x.x.x.x.x.x.x.x.x.x.x.x.x.x.x.t.x.U . , 8 % 1 % % # r d                         ",
"                        y d G y.x.s.x.x.x.x.x.x.x.x.x.x.x.x.x.x.x.x.x.t.x.Y o , % 1 % 2 % # r d                         ",
"                        p s V 9.x.x.x.x.x.x.x.x.x.x.x.x.x.x.x.x.x.x.x.i.x.Y o , 2 % 2 % % % r d                         ",
"                        p s V 9.x.s.x.x.x.x.x.x.x.x.x.x.x.x.x.x.x.x.x.i.x.T . , i % % % % % r p                         ",
"                        s d B 9.x.x.x.x.x.x.x.x.x.x.x.x.x.x.x.x.x.x.x.t.t.T X 1 % % % 2 % % r h                         ",
"                        p s B 9.x.x.x.x.x.x.x.x.x.x.x.x.x.x.x.x.x.x.x.t.u.E X 1 % 2 % 1 % # r p                         ",
"                          s B 9.x.x.x.x.x.x.x.x.x.x.x.x.x.x.x.x.x.x.i.u.u.E X 1 % 1 % 2 g 1 r p                         ",
"                          s B 8.x.s.x.x.x.x.x.x.x.x.x.x.x.x.x.x.x.x.i.u.u.E X 3 1 % w 8 M i e h                         ",
"                          y B 0.x.x.x.x.x.x.x.x.x.x.x.x.x.x.x.x.x.x.x.t.x.W . , > > < w v 5 2 d                         ",
"                          s B 7.x.x.x.x.x.x.x.x.x.x.x.x.x.x.x.x.x.x.x.t.x.Q X , > > * = M i e d                         ",
"                          s N 6.x.a.x.x.x.x.x.x.x.x.x.x.x.x.x.x.x.x.x.t.x.! o , > > > = 5 , e d                         ",
"                          p x 5.x.x.x.x.x.x.x.x.x.x.x.x.x.x.x.x.x.x.x.x.x.! X > > = = > % @ r p                         ",
"                          s z 1.x.i.x.x.x.x.x.x.x.x.x.x.x.x.x.x.x.x.x.t.x.^ o > > > : > * @ r p                         ",
"                          s z ,.x.x.x.x.x.x.x.x.x.x.x.x.x.x.x.x.x.x.x.s.x.~ o , > > % > = @ r d                         ",
"                          s z :.x.x.x.x.x.x.x.x.x.x.x.x.x.x.x.x.x.x.x.t.x.^ o > > > > > % @ r d                         ",
"                          s k -.x.a.x.x.x.x.x.x.x.x.x.x.x.x.x.x.x.x.x.t.x.^ o > > > > > > @ r d                         ",
"                          s k =.x.y.x.x.x.x.x.x.x.x.x.x.x.x.x.x.x.x.x.i.i.( X > > > % 1 % % r d                         ",
"                          s j =.x.x.x.x.x.x.x.x.x.x.x.x.x.x.x.x.x.x.x.i.x.( o , 1 % 2 % % % r d                         ",
"                          s j %.x.t.x.x.x.x.x.x.x.x.x.x.x.x.x.x.x.x.x.i.x.( X , 1 1 1 1 % # r d                         ",
"                          s j %.x.x.x.x.x.x.x.x.x.x.x.x.x.x.x.x.x.x.x.i.x.( + > > % % 1 % O r d                         ",
"                          s j $.x.t.x.x.x.x.x.x.x.x.x.x.x.x.x.x.x.x.x.i.i.{ O > % 1 1 % % % r p                         ",
"                          s f #.x.x.x.x.x.x.x.x.x.x.x.x.x.x.x.x.x.x.x.a.i.{ o > e 1 % 1 % % r d                         ",
"                          s u +.x.y.x.x.x.x.x.x.x.x.x.x.x.x.x.x.x.x.x.y.i.{ # % % % 1 1 % O r d                         ",
"                          s u +.x.t.x.x.x.x.x.x.x.x.x.x.x.x.x.x.x.x.x.x.u.{ O 2 % e % 1 % # r d                         ",
"                          s f o.x.i.x.x.x.x.x.x.x.x.x.x.x.x.x.x.x.x.x.t.x.{ O > > = > > % # r p                         ",
"                          s f ] x.i.x.i.i.x.x.i.x.x.s.x.s.x.x.x.x.x.x.t.x.{ O > > = = > % @ r d                         ",
"                          s y +.x.x.x.x.x.x.x.x.x.x.x.x.x.x.x.x.x.x.x.x.x.{ o * > > = > = @ r d                         ",
"                          s f _ *.&.;.>.>.<.2.3.3.7.7.7.7.7.7.7.7.7.7.7.x./ O $ % > > : = @ r p                         ",
"                          s d r 3 3 e 5 5 5 r 6 6 r 0 0 5 6 6 6 6 6 6 6 8 4 % # % % = = * O r d                         ",
"                          t s s s s s s t p s t p t t t t t t t t t t t t t y , # # % : * # r p                         ",
"                                                                            p   % $ # % * # r d                         ",
"                                                                                  # % # % # r d                         ",
"                                                                                    $ $ $ @ r d                         ",
"                                                                                        % # r s                         ",
"                                                                                          # r s                         ",
"                                                                                            r s                         "
};
