/* XPM */
static char *b46aa9c09e8947e1b8f226ce3d319ac0sP9OkYR4Og3YdLgw[] = {
/* columns rows colors chars-per-pixel */
"60 60 225 2 ",
"   c None",
".  c black",
"X  c #2D1414",
"o  c #381416",
"O  c #353631",
"+  c #3C2734",
"@  c #392E0B",
"#  c #481417",
"$  c #591216",
"%  c #631316",
"&  c #6E1418",
"*  c #691418",
"=  c #701418",
"-  c #741A1E",
";  c #423307",
":  c #793519",
">  c #712B34",
",  c #5D1F27",
"<  c #3A4F0C",
"1  c #5C480D",
"2  c #755710",
"3  c #547713",
"4  c #7F6312",
"5  c #5E783E",
"6  c #553C50",
"7  c #693547",
"8  c #3C516D",
"9  c #626A5D",
"0  c #4A5F7A",
"q  c #68546D",
"w  c #6A5467",
"e  c #92171C",
"r  c #AB1A1F",
"t  c #82251A",
"y  c #93371A",
"u  c #BC271F",
"i  c #B91D23",
"p  c #B2292B",
"a  c #87342A",
"s  c #C51E25",
"d  c #CD1D24",
"f  c #D41E25",
"g  c #DC1D24",
"h  c #E41D25",
"j  c #EC1C24",
"k  c #C13123",
"l  c #EA2629",
"z  c #EF3437",
"x  c #BF691B",
"c  c #9C5C26",
"v  c #CA6217",
"b  c #D97716",
"n  c #CD7B19",
"m  c #E37E14",
"M  c #F57B14",
"N  c #EF403F",
"B  c #CE6323",
"V  c #9C394F",
"C  c #AA5054",
"Z  c #B0725B",
"A  c #88536B",
"S  c #A66D70",
"D  c #92705E",
"F  c #E35055",
"G  c #4C811B",
"H  c #77AF3E",
"J  c #669C54",
"K  c #BE831A",
"L  c #B59131",
"P  c #D38819",
"I  c #F59D0E",
"U  c #F59A0E",
"Y  c #E68413",
"T  c #EA8A12",
"R  c #ED9212",
"E  c #E49B17",
"W  c #F49813",
"Q  c #F0950F",
"!  c #F8A40D",
"~  c #F7AD0D",
"^  c #F9AC0C",
"/  c #F6A00E",
"(  c #F7B40B",
")  c #F8B00C",
"_  c #F7B90E",
"`  c #EAA816",
"'  c #F8A718",
"]  c #F7BD12",
"[  c #F6BE1A",
"{  c #F8B418",
"}  c #EEB315",
"|  c #DD9635",
" . c #D08F29",
".. c #DCA734",
"X. c #E8B828",
"o. c #F7BC28",
"O. c #F6BA35",
"+. c #E5B02E",
"@. c #80C435",
"#. c #F8C016",
"$. c #F7C11A",
"%. c #F9C41B",
"&. c #F8C219",
"*. c #EFC229",
"=. c #F8C623",
"-. c #F9CA24",
";. c #F9CB2B",
":. c #F6C629",
">. c #F8D02C",
",. c #F9CD35",
"<. c #F6C836",
"1. c #F8D537",
"2. c #EDC13D",
"3. c #AB9453",
"4. c #A38B7C",
"5. c #AFBD67",
"6. c #A8BC74",
"7. c #88B373",
"8. c #CF9A49",
"9. c #C9BB48",
"0. c #C0B958",
"q. c #D8B248",
"w. c #C49B6D",
"e. c #CCA86D",
"r. c #BEC45D",
"t. c #A3C07C",
"y. c #B9C160",
"u. c #CCC651",
"i. c #F6C443",
"p. c #F8D244",
"a. c #F8D649",
"s. c #F9DA57",
"d. c #F9DC62",
"f. c #F9D96C",
"g. c #F9DD7A",
"h. c #F9E379",
"j. c #F8E26F",
"k. c #F8E850",
"l. c #3E6084",
"z. c #496D96",
"x. c #728B98",
"c. c #6FADB3",
"v. c #5A90A8",
"b. c #7FC0AD",
"n. c #4F9CD3",
"m. c #5099CE",
"M. c #51A2D8",
"N. c #5FB9DD",
"B. c #79B5DA",
"V. c #6CABD1",
"C. c #5EB3E5",
"Z. c #66BBE6",
"A. c #6E96C3",
"S. c #75C8D8",
"D. c #6EC3D0",
"F. c #76CCE6",
"G. c #76CBF2",
"H. c #7CD4F1",
"J. c #6DC7E8",
"K. c #9EA69A",
"L. c #8FAB91",
"P. c #B1AC91",
"I. c #94B8AF",
"U. c #A6A8A9",
"Y. c #B7B9AD",
"T. c #A5ACB6",
"R. c #A6B2B9",
"E. c #B8BCBB",
"W. c #A29896",
"Q. c #CFAE8D",
"!. c #84C0B4",
"~. c #B9C3B4",
"^. c #FAED99",
"/. c #FAE689",
"(. c #87B4D1",
"). c #9BBFE5",
"_. c #84CBDC",
"`. c #84D2DE",
"'. c #ADC4C9",
"]. c #BBC8C6",
"[. c #A6C8D9",
"{. c #9AC4E7",
"}. c #83D7EE",
"|. c #8AD9EB",
" X c #88D6E8",
".X c #97DCE6",
"XX c #89CEF2",
"oX c #95D5F4",
"OX c #9ED5F3",
"+X c #9ADBF4",
"@X c #8DD9F3",
"#X c #A6C9E5",
"$X c #BBDAED",
"%X c #A3DAF6",
"&X c #A8DFF8",
"*X c #A9DDF6",
"=X c #B1DCF3",
"-X c #AFD0E9",
";X c #ACE2F9",
":X c #B4E6FA",
">X c #B8E8FB",
",X c #B6E5F8",
"<X c #ACE3EB",
"1X c #C6C8C6",
"2X c #D3D7D7",
"3X c #C4D4D7",
"4X c #DCE1D5",
"5X c #C3DEF2",
"6X c #CCDCE0",
"7X c #C8E4EC",
"8X c #D7E8EE",
"9X c #C4ECFB",
"0X c #CCEEFC",
"qX c #C1E6F9",
"wX c #DBF3FD",
"eX c #D6F2FC",
"rX c #D3E0F2",
"tX c #EAF8FE",
"yX c #E8F6FC",
"uX c #F2F1F0",
"iX c #F3FAFD",
"pX c #FDFFFF",
"aX c #FAF6F6",
"sX c #EBEDEC",
"dX c #E0E8D4",
/* pixels */
"                                                                                                                        ",
"                                                                                                                        ",
"                                                                                                                        ",
"                                                                                                                        ",
"                                                                                                                        ",
"                                                                                                                        ",
"                                                              :                                                         ",
"                                                            :                                                           ",
"                                                                                                                        ",
"                                                                                                                        ",
"                                                                        :                                               ",
"                                                Y R { O.4 ; 1 3.g.f.p.o.R y                                             ",
"                                            I ) <.h.q.@ I.0X0Xx.4 ^.^.^./.i.) Q                                         ",
"                                        I ^ { s.d.d.; 7XiXaXpXtX]...L 1 1 2 /.2.~ Q                                     ",
"                                    T ~ ! ^ p.a.a.L 9 iXuX1X1XpXtX8.K.eX0X'.1 g.f.{ ~ b                                 ",
"                                  Q ~ ) Q Q <.O.<.4 '.pX~.dXG E.iX0.6X1X2XiXK.L s.d.] ^ Y                               ",
"                                / ~ ) ( ( ( _ *.` 2 wXE.H + . Y.iX3.uXG H aXtX4 p.a.p.~ ^ U                             ",
"                              U ^ ~ ) ,.;.` ` #.k.<.| uXJ < 5 R.iX9 3 O @.2XtXc *.2.' M ^ ^ R                           ",
"                            Q ^ ^ ) =.` n x E { [ 1.a.q.1XU.U.tX$Xc L.7.K.pX4XK <.=.=.;.( ^ ^ Y                         ",
"                          T ! ^ ) ( ` ~ ] X.p B B =.-.1.q.7X0X-X .X.W.wXyX6X2.1.] ] [ [ ( ( ^ ^ m                       ",
"                          ! ^ ^ ) ( ( _ #.#.P C F F Z +.-.P  .*.>.-.*.L c ,.>.#.] =.[ _ ) _ ~ ^ '                       ",
"                        Q ! ^ ) ( ( _ _ #.#.%.v.6XqXB.I.4.2.>.>.>.>.>.-.;.-.%.%.` P ` } _ ( ( ~ ;.m                     ",
"                        ! ! ) ) ( _ #.#.#.&.%.c.S 0X5X9X:XT.8.*.>.>.>.>.>.-.=.%.P n [ ] _ _ ( ( { {                     ",
"                      Y ! ^ ) ( _ _ #.#.#.&.-.c.- 8X8X#X{.0X>X'.w...,.>.>.>...W.A ` { ] _ _ ( ~ ^ ,.                    ",
"                      I ! ^ ( ( _ _ #.&.%.%.-.t.w a aXiXiX7X9X9X9X9XW.Q.Q.W.#X).a } #.#._ _ ( ( ^ ;.R                   ",
"                      I ! ^ ( ( _ _ #.&.%.%.-.t.w & - uXiX$X0X#X).{.yXiXaX-X).wXt %.%.#._ _ ( ( ~ { {                   ",
"                    m / ^ ) ) _ _ #.#.&.%.-.-.r.z.- = = S ).0X$XpXpXpXpXpXrX-X7 t %.%.#.#._ ( ( ^ ^ o.                  ",
"                    m ^ ) ^ ) _ _ _ #.%.%.-.-.u.A.- = = = (.C.T.uXaXpXaXsXS A.- - %.%.#.#._ _ ( ) ^ =.                  ",
"                    Y { _ ( ( ( _ _ #.&.%.-.-.>.C.= & & = B.m.= = = = = = = & & t %.%.[ ] _ _ ( ~ ^ =.                  ",
"                    R ;.#.( ( ( _ #.#.&.%.-.>.;.Z.7 = & & m.z.& = = = = = = & & y %.%.#.#._ _ ( ^ ^ #.                  ",
"                    Y ,.%._ ( ( _ _ #.#.%.%.-.-.Z.q & % $ n.6 % $ * & = = = * - y %.&.#.] _ ( ( ) ^ [                   ",
"                    Y <.;.&.( ( _ #.#.%.%.-.-.-.J.Z.$ $ # n., # $ $ % = = = e e v %.#.#._ _ _ ( ^ ! )                   ",
"                    m i.p.=.) _ _ _ ] #.%.%.-.u.G.J.6 # + M.o o # * r s e d l z l n $.] ] _ _ ~ ^ ! U                   ",
"                      O.s.,.%.( _ _ ] #.%.%.*.y.G.G.V.# 8 M.o X - j j z N d h j j h E ] ] _ ( ( ^ ! I                   ",
"                      ! j.a.-.) ( _ ] ] #.%.%.t.H.G.G.0 l.M.X X i d f j j z f j j j u ] _ ( ( ~ ^ ! Y                   ",
"                      Y f.s.,.#.( ( _ ] #.#.%.y.}.H.H.J.M.M.o , s i s g j j l g j j h E _ ( ( ~ ! U m                   ",
"                        O.h.a.;._ _ _ ] ] &.&.5.@XH.H.H.J.N.l.q V s i i h j j h j j g n ( ( ( ^ ! U                     ",
"                        R ^.f.,.$.) ( _ ] ] #.5.+X|.H.S.H.Z.C.J.(.V d i s j j h g g g v ( ( ^ ! ! m                     ",
"                          O.h.s.,.] ( ( _ ] ] 5.<X}.D.u.H.|.F.N.C.A p k i d l g g g g v ) ^ ^ ! U                       ",
"                          Y g.d.1.=._ ( _ _ _ 5.<X X9.#.F.|.|.|.@Xc.%.%.v s d f f f d v ) ^ ! I                         ",
"                            W g.s.,.$.) ( ( _ [ S.b.#.#.F.|.|.}.J.D.] ] ] i s d d d i ~ ! ~ I T                         ",
"                              W d.p.-.] ( ( ( _ _ _ _ _ S..X.XI.9.D.] ] _ E i d s s B ^ ! / m                           ",
"                                W <.,.=._ ( ( ( _ _ _ _ _..X+X5.] 9._ _ _ ( +.Z C  .' ! I e.].                          ",
"                                4.| o.:.#.( ) ) ( ( _ _ _..X_._ ( _ ( _ ( ( ) ^ ) ^ ! ! e.3XwXtX9X                      ",
"                          OXqXwX;X'.w.' [ _ ! ^ ( ( ( ( S.<X!._ _ ) ) ( ) ^ ^ ^ ^ ! U Q.7X>X>X>X>XXX                    ",
"                        %X0XyX0X>X&X-XP.8.I ! ! ^ ^ ^ ^ I.<X0.) 9._.^ ^ ^ ^ ^ ! ! Q.Y.>X,X>X>X>X>X                      ",
"                        XX>X>X>X>X:X&X%X[.P.w.U I ! ! ^ ` L.^ ^ K..X^ ! ! ! / e.Y.$X>X>X>X>X>X,X                        ",
"                  %X0X9X:X>X>X>X>X>X>X=X%X%X[.P.P.| U ! ! ! ! ! P.`.! U | P.E.,X>X>X>X>X>X>X>X:XG.                      ",
"                0XpXwX>X>X>X>X>X>X>X>X>X;X&X%XOXOXoXR.R.T.T.T.U.I.S.R.[.;X;X>X>X>X>X>X>X>X>X>X>X>X>XqX                  ",
"                9X>X>X>X>X>X>X>X>X>X>X>X>X>X;X;X%X%XOXOXOXOXOXOX%X*X;X;X:X>X>X>X>X>X>X>X>X>X>X>X>X>XwXtX                ",
"                  ;X>X>X>X>X>X>X>X>X>X>X>X>X>X:X:X;X;X;X&X&X&X;X;X0XyXwX9X>X>X>X>X>X>X>X>X>X>X>X>X>XwX%X                ",
"                          oXoXoXoXoXoXoXoXoX                          XX9XwXyXwXwXwX0X>X>X>X>X;XoX                      ",
"                                                                              oX*X,X=XoX                                ",
"                                                                                                                        ",
"                                                                                                                        ",
"                                                                                                                        ",
"                                                                                                                        ",
"                                                                                                                        ",
"                                                                                                                        ",
"                                                                                                                        "
};
