/* XPM */
static char *_6f72cc7578d469f863de4cf7c3a3f47Axkv1gAJs5FMmWeI[] = {
/* columns rows colors chars-per-pixel */
"60 60 4 1 ",
"  c None",
". c #FFBC58",
"X c #FFBD58",
"o c #FFBD59",
/* pixels */
"                                                            ",
"                                                            ",
"                                                            ",
"                                                            ",
"                                                            ",
"                                                            ",
"                                                            ",
"                                                            ",
"                                                            ",
"                                                            ",
"                                                            ",
"                                                            ",
"ooooooooooooooooooooooooooooo  ooooooooooooooooooooooooooooo",
"ooooooooooooooooooooooooooooo oooooooooooooooooooooooooooooo",
"oooooooooooooooooooooooooooooXXooooooooooooooooooooooooooooo",
"oooooooooooooooooooooooooooooXXooooooooooooooooooooooooooooo",
"oooooooooooooooooooooooooooooXXooooooooooooooooooooooooooooo",
"oooooooooooooooooooooooooooooXXooooooooooooooooooooooooooooo",
"oooooooooooooooooooooooooooooXXooooooooooooooooooooooooooooo",
"oooooooooooooooooooooooooooooXXooooooooooooooooooooooooooooo",
"ooooooooooooooooooooooooooooooXooooooooooooooooooooooooooooo",
"ooooooooooooooooooooooooooooo Xooooooooooooooooooooooooooooo",
"ooooooooooooooooooooooooooooo  oooooooooooooooooooooooooooo.",
"  XXXXXXXXXXXXXooXXXXXXXXXo      XXXXXXXoXXXXXXXXXXXXXXXXo  ",
"oo......o...X    .......X.................o    oX.......o...",
"oooooooooooooo  ooooooooooooooooooooooooooooo oooooooooooooo",
"oooooooooooooo oooooooooooooooooooooooooooooo oooooooooooooo",
"oooooooooooooo oooooooooooooooooooooooooooooo oooooooooooooo",
"oooooooooooooo oooooooooooooooooooooooooooooo oooooooooooooo",
"oooooooooooooo oooooooooooooooooooooooooooooo oooooooooooooo",
"oooooooooooooo oooooooooooooooooooooooooooooo oooooooooooooo",
"oooooooooooooo oooooooooooooooooooooooooooooo oooooooooooooo",
"oooooooooooooo oooooooooooooooooooooooooooooo oooooooooooooo",
"oooooooooooooo oooooooooooooooooooooooooooooo oooooooooooooo",
"oooooooooooooo oooooooooooooooooooooooooooooo oooooooooooooo",
"oooooooooooooo  oooooooooooooooooooooooooooo  oooooooooooooo",
"                                                            ",
" oooooooooooooooooooooooooooo  Xooooooooooooooooooooooooooo ",
"ooooooooooooooooooooooooooooo  ooooooooooooooooooooooooooooo",
"oooooooooooooooooooooooooooooXoooooooooooooooooooooooooooooo",
"oooooooooooooooooooooooooooooXXooooooooooooooooooooooooooooo",
"oooooooooooooooooooooooooooooXXooooooooooooooooooooooooooooo",
"oooooooooooooooooooooooooooooXXooooooooooooooooooooooooooooo",
"oooooooooooooooooooooooooooooXXooooooooooooooooooooooooooooo",
"oooooooooooooooooooooooooooooXXooooooooooooooooooooooooooooo",
"oooooooooooooooooooooooooooooXXooooooooooooooooooooooooooooo",
"oooooooooooooooooooooooooooooooooooooooooooooooooooooooooooo",
"ooooooooooooooooooooooooooooo  ooooooooooooooooooooooooooooo",
" ooooooooooooooooooooooooooo    oooooooooooooooooooooooooo  ",
"                                                            ",
"                                                            ",
"                                                            ",
"                                                            ",
"                                                            ",
"                                                            ",
"                                                            ",
"                                                            ",
"                                                            ",
"                                                            ",
"                                                            "
};
